<svg id="visual" viewBox="0 0 1920 1080" width="1920" height="1080" xmlns="http://www.w3.org/2000/svg" xmlns:xlink="http://www.w3.org/1999/xlink" version="1.1"><rect x="0" y="0" width="1920" height="1080" fill="#000816"></rect><defs><linearGradient id="grad1_0" x1="43.8%" y1="0%" x2="100%" y2="100%"><stop offset="14.444444444444446%" stop-color="#000816" stop-opacity="1"></stop><stop offset="85.55555555555554%" stop-color="#000816" stop-opacity="1"></stop></linearGradient></defs><defs><linearGradient id="grad2_0" x1="0%" y1="0%" x2="56.3%" y2="100%"><stop offset="14.444444444444446%" stop-color="#000816" stop-opacity="1"></stop><stop offset="85.55555555555554%" stop-color="#000816" stop-opacity="1"></stop></linearGradient></defs><g transform="translate(1920, 0)"><path d="M0 972C-100.5 900.4 -201.1 828.7 -329.1 794.5C-457.1 760.4 -612.6 763.6 -687.3 687.3C-762 611 -755.9 455 -789.9 327.2C-823.9 199.4 -898 99.7 -972 0L0 0Z" fill="#5271ff"></path></g><g transform="translate(0, 1080)"><path d="M0 -972C96.2 -889.5 192.4 -807.1 320.7 -774.2C449 -741.3 609.3 -758.1 687.3 -687.3C765.3 -616.5 760.8 -458.2 794.5 -329.1C828.3 -200 900.1 -100 972 0L0 0Z" fill="#5271ff"></path></g></svg>