<svg id="blob" xmlns="http://www.w3.org/2000/svg" width="1920" height="1080" viewBox="0 0 1920 1080">
  <defs>
    <style>
      .cls-1 {
        fill: #000816;
      }

      .cls-2 {
        fill: none;
        stroke: #c92658;
        stroke-width: 16px;
      }
    </style>
  </defs>
  <rect id="Rectangle_14" data-name="Rectangle 14" class="cls-1" width="1920" height="1080"/>
  <g id="Group_40" data-name="Group 40">
    <g id="Group_20" data-name="Group 20" transform="translate(184.267 938.143)">
      <path id="Path_25" data-name="Path 25" class="cls-2" d="M95.6-29.1c13.7,40.2.2,91.3-31.8,113.8-32.1,22.6-82.6,16.7-118.3-9.4C-90.2,49.3-111.2,3.2-99.6-34-88-71.3-44-99.7-1.5-99.2,40.9-98.7,81.9-69.3,95.6-29.1Z"/>
    </g>
    <g id="Group_21" data-name="Group 21" transform="translate(1785 114)">
      <path id="Path_26" data-name="Path 26" class="cls-2" d="M39.2-11.5c5.3,15.1-1,35.1-14.6,44.9S-9.8,42.6-22.3,33C-34.8,23.3-39.1,4.6-34-10.2S-14.5-35.9,1.3-36.3C17-36.7,33.9-26.6,39.2-11.5Z"/>
    </g>
    <g id="Group_22" data-name="Group 22" transform="translate(1306 145)">
      <path id="Path_27" data-name="Path 27" class="cls-2" d="M39.2-12.8c5.6,17.4.1,38.4-13.1,47.8-13.3,9.4-34.3,7.3-49.6-3.6C-38.7,20.6-48.2.9-43.3-15.4s24.1-29.3,42.1-29C16.8-44,33.6-30.2,39.2-12.8Z"/>
    </g>
    <g id="Group_47" data-name="Group 47" transform="translate(114.305 122.094)">
      <path id="Path_27-2" data-name="Path 27" class="cls-2" d="M39.2-12.8c5.6,17.4.1,38.4-13.1,47.8-13.3,9.4-34.3,7.3-49.6-3.6C-38.7,20.6-48.2.9-43.3-15.4s24.1-29.3,42.1-29C16.8-44,33.6-30.2,39.2-12.8Z"/>
    </g>
    <g id="Group_23" data-name="Group 23" transform="translate(111.069 695.86)">
      <path id="Path_28" data-name="Path 28" class="cls-2" d="M18.97-55.238c7.045,16.846.64,37.071-16.523,47.059-17.163,9.939-45.086,9.64-62.762-.547-17.612-10.237-25.041-30.313-18.124-47.01S-50.324-85.7-29.446-85.6C-8.568-85.551,11.925-72.084,18.97-55.238Z" transform="translate(0 0)"/>
    </g>
    <g id="Group_42" data-name="Group 42" transform="translate(1176.297 1006.201)">
      <path id="Path_28-2" data-name="Path 28" class="cls-2" d="M40.318-55.238c8.549,16.846.777,37.071-20.051,47.059C-.562,1.76-34.447,1.462-55.9-8.725-77.27-18.962-86.285-39.038-77.892-55.735S-43.773-85.7-18.437-85.6C6.9-85.551,31.769-72.084,40.318-55.238Z" transform="translate(0 0)"/>
    </g>
    <g id="Group_45" data-name="Group 45" transform="translate(623.297 231.605)">
      <path id="Path_28-3" data-name="Path 28" class="cls-2" d="M40.318-55.238c8.549,16.846.777,37.071-20.051,47.059C-.562,1.76-34.447,1.462-55.9-8.725-77.27-18.962-86.285-39.038-77.892-55.735S-43.773-85.7-18.437-85.6C6.9-85.551,31.769-72.084,40.318-55.238Z" transform="translate(0 0)"/>
    </g>
    <g id="Group_52" data-name="Group 52" transform="translate(1372.113 601.546)">
      <path id="Path_28-4" data-name="Path 28" class="cls-2" d="M40.318-55.238c8.549,16.846.777,37.071-20.051,47.059C-.562,1.76-34.447,1.462-55.9-8.725-77.27-18.962-86.285-39.038-77.892-55.735S-43.773-85.7-18.437-85.6C6.9-85.551,31.769-72.084,40.318-55.238Z" transform="translate(0 0)"/>
    </g>
    <g id="Group_44" data-name="Group 44" transform="translate(519.206 360.573) rotate(-124)">
      <path id="Path_28-5" data-name="Path 28" class="cls-2" d="M40.318-55.238c8.549,16.846.777,37.071-20.051,47.059C-.562,1.76-34.447,1.462-55.9-8.725-77.27-18.962-86.285-39.038-77.892-55.735S-43.773-85.7-18.437-85.6C6.9-85.551,31.769-72.084,40.318-55.238Z" transform="translate(0 0)"/>
    </g>
    <g id="Group_24" data-name="Group 24" transform="translate(948 103)">
      <path id="Path_29" data-name="Path 29" class="cls-2" d="M78.2-28.4C88.2,5.4,74.1,44,45.3,65.8,16.4,87.6-27.3,92.6-53.8,73.5-80.3,54.3-89.7,11.1-77.9-25.2S-33-90.9.5-91C34.1-91.2,68.2-62.2,78.2-28.4Z"/>
    </g>
    <g id="Group_25" data-name="Group 25" transform="translate(1464.868 707.754)">
      <path id="Path_30" data-name="Path 30" class="cls-2" d="M49.1-14.1c6.3,17.5-2.5,41.8-19.9,54.4C11.9,52.9-14,53.8-30.2,41.9S-53.1,5.3-46.5-12.6C-39.8-30.5-19.9-41.7.7-41.9,21.4-42.1,42.8-31.5,49.1-14.1Z"/>
    </g>
    <g id="Group_46" data-name="Group 46" transform="translate(1098.864 274.505)">
      <path id="Path_30-2" data-name="Path 30" class="cls-2" d="M49.1-14.1c6.3,17.5-2.5,41.8-19.9,54.4C11.9,52.9-14,53.8-30.2,41.9S-53.1,5.3-46.5-12.6C-39.8-30.5-19.9-41.7.7-41.9,21.4-42.1,42.8-31.5,49.1-14.1Z"/>
    </g>
    <g id="Group_26" data-name="Group 26" transform="translate(1759.6 699.682)">
      <path id="Path_31" data-name="Path 31" class="cls-2" d="M92.1-29.8c11.5,35.1-6,79.7-38.9,103.9-33,24.2-81.6,28-110.3,6.6C-85.8,59.4-94.6,12.9-81.8-24.1-69-61-34.5-88.4,2.9-89.4,40.3-90.3,80.7-64.8,92.1-29.8Z"/>
    </g>
    <g id="Group_27" data-name="Group 27" transform="translate(1061 697)">
      <path id="Path_32" data-name="Path 32" class="cls-2" d="M101.4-34C112.3.5,88.8,45.1,52.2,71.7,15.6,98.2-34,106.6-63.9,85.5-93.8,64.3-104.1,13.6-90.1-25.2c13.9-38.7,52-65.5,93.7-66.7C45.3-93,90.6-68.6,101.4-34Z"/>
    </g>
    <g id="Group_28" data-name="Group 28" transform="translate(426.525 696.514)">
      <path id="Path_33" data-name="Path 33" class="cls-2" d="M63-20.6c8.3,25.7-2.4,57.4-24.1,72.8C17.3,67.6-15.2,66.7-38.8,50.3S-77.1,2-69.1-23.1c7.9-25.2,38.5-43.7,67.5-43.2S54.7-46.2,63-20.6Z"/>
    </g>
    <g id="Group_29" data-name="Group 29" transform="translate(182 341)">
      <path id="Path_34" data-name="Path 34" class="cls-2" d="M28.3-9.6c3.3,10.4-2.7,23.5-12.2,30-9.4,6.4-22.4,6.2-31.2-.1S-28.5,1.6-25.3-8.8s14.2-18.7,26-19C12.5-28,25.1-20.1,28.3-9.6Z"/>
    </g>
    <g id="Group_41" data-name="Group 41" transform="translate(1361.212 875.83)">
      <path id="Path_34-2" data-name="Path 34" class="cls-2" d="M28.3-9.6c3.3,10.4-2.7,23.5-12.2,30-9.4,6.4-22.4,6.2-31.2-.1S-28.5,1.6-25.3-8.8s14.2-18.7,26-19C12.5-28,25.1-20.1,28.3-9.6Z"/>
    </g>
    <g id="Group_48" data-name="Group 48" transform="translate(1625.361 205.59)">
      <path id="Path_34-3" data-name="Path 34" class="cls-2" d="M28.3-9.6c3.3,10.4-2.7,23.5-12.2,30-9.4,6.4-22.4,6.2-31.2-.1S-28.5,1.6-25.3-8.8s14.2-18.7,26-19C12.5-28,25.1-20.1,28.3-9.6Z"/>
    </g>
    <g id="Group_30" data-name="Group 30" transform="translate(632.965 879.537)">
      <path id="Path_35" data-name="Path 35" class="cls-2" d="M67.6-19.5c8.5,23.8-4,56.8-27.3,73.4s-57.5,16.7-80.5.2C-63.2,37.7-75,4.7-66.4-19.1-57.9-42.9-28.9-57.5.3-57.6S59.1-43.3,67.6-19.5Z"/>
    </g>
    <g id="Group_43" data-name="Group 43" transform="translate(1585.214 916.194)">
      <path id="Path_35-2" data-name="Path 35" class="cls-2" d="M67.6-19.5c8.5,23.8-4,56.8-27.3,73.4s-57.5,16.7-80.5.2C-63.2,37.7-75,4.7-66.4-19.1-57.9-42.9-28.9-57.5.3-57.6S59.1-43.3,67.6-19.5Z"/>
    </g>
    <g id="Group_31" data-name="Group 31" transform="translate(1146.298 470.752)">
      <path id="Path_36" data-name="Path 36" class="cls-2" d="M44.034-9.5C48.856,2,41.682,17.8,28.863,25.4s-31.4,6.9-44.456-1S-36.175,1.4-31.706-9.7-10.654-28,5.929-28C22.512-28.1,39.33-21,44.034-9.5Z" transform="translate(0 0)"/>
    </g>
    <g id="Group_50" data-name="Group 50" transform="translate(278.918 523.258)">
      <path id="Path_36-2" data-name="Path 36" class="cls-2" d="M44.034-9.5C48.856,2,41.682,17.8,28.863,25.4s-31.4,6.9-44.456-1S-36.175,1.4-31.706-9.7-10.654-28,5.929-28C22.512-28.1,39.33-21,44.034-9.5Z" transform="translate(0 0)"/>
    </g>
    <g id="Group_32" data-name="Group 32" transform="translate(868.594 973.601)">
      <path id="Path_37" data-name="Path 37" class="cls-2" d="M30.6-9.5c4.8,14.4,1.6,31.9-9.7,40.7-11.4,8.8-30.8,9-44-.4-13.1-9.3-20-28.2-15.1-42.7,4.8-14.5,21.5-24.6,36.3-24C12.9-35.2,25.8-23.9,30.6-9.5Z"/>
    </g>
    <g id="Group_33" data-name="Group 33" transform="translate(1639.88 525.319)">
      <path id="Path_38" data-name="Path 38" class="cls-2" d="M14.9-4.9c2,6.2-.4,13.8-5.3,17.1S-2.6,14.5-7.3,10.9A14.644,14.644,0,0,1-12.5-4.7c1.6-5.7,7-10.7,13-10.9C6.5-15.7,13-11,14.9-4.9Z"/>
    </g>
    <g id="Group_34" data-name="Group 34" transform="translate(838 438)">
      <path id="Path_39" data-name="Path 39" class="cls-2" d="M70.7-21c8.8,25.4-4.3,59.8-29.3,78C16.5,75.1-20.4,76.9-42.9,60.2-65.5,43.6-73.8,8.4-64.3-17.9S-27.4-61.6,1.8-62.2C30.9-62.8,61.8-46.4,70.7-21Z"/>
    </g>
    <g id="Group_35" data-name="Group 35" transform="translate(689 670.05)">
      <path id="Path_40" data-name="Path 40" class="cls-2" d="M37.6-11.7c5.3,15.6-.5,35.3-14.1,45.5s-35.1,10.9-47.4,1.4C-36.1,25.7-39.2,6-33.7-10S-14.1-38.1,1-38.5C16.2-38.8,32.4-27.3,37.6-11.7Z"/>
    </g>
    <g id="Group_36" data-name="Group 36" transform="translate(1766.544 388.667)">
      <path id="Path_41" data-name="Path 41" class="cls-2" d="M38.4-14.9c4.9,17.5-2,36.5-15.3,45.9-13.3,9.5-33,9.6-47.8-.4C-39.5,20.7-49.4.7-44.5-16.9c4.9-17.5,24.7-32.6,43-32.1C16.7-48.5,33.5-32.4,38.4-14.9Z"/>
    </g>
    <g id="Group_37" data-name="Group 37" transform="translate(633.903 538.524)">
      <path id="Path_42" data-name="Path 42" class="cls-2" d="M12.9-4A15.677,15.677,0,0,1,8.2,12.5c-4.9,3.8-13,4.5-17.7,1S-15.6,2.3-13.4-3.7C-11.3-9.7-5.6-14-.1-13.9,5.5-13.9,11-9.6,12.9-4Z"/>
    </g>
    <g id="Group_49" data-name="Group 49" transform="translate(452.632 962.013)">
      <path id="Path_42-2" data-name="Path 42" class="cls-2" d="M12.9-4A15.677,15.677,0,0,1,8.2,12.5c-4.9,3.8-13,4.5-17.7,1S-15.6,2.3-13.4-3.7C-11.3-9.7-5.6-14-.1-13.9,5.5-13.9,11-9.6,12.9-4Z"/>
    </g>
    <g id="Group_51" data-name="Group 51" transform="translate(855.051 793.467)">
      <path id="Path_42-3" data-name="Path 42" class="cls-2" d="M12.9-4A15.677,15.677,0,0,1,8.2,12.5c-4.9,3.8-13,4.5-17.7,1S-15.6,2.3-13.4-3.7C-11.3-9.7-5.6-14-.1-13.9,5.5-13.9,11-9.6,12.9-4Z"/>
    </g>
    <g id="Group_38" data-name="Group 38" transform="translate(1457.172 346.864)">
      <path id="Path_43" data-name="Path 43" class="cls-2" d="M97.2-28.4C110,7.8,93.4,56.7,60.4,79.9,27.5,103-21.8,100.4-54.3,76.4-86.7,52.4-102.4,7-90.6-27.9s51.2-59.4,92-59.8C42.2-88.2,84.4-64.7,97.2-28.4Z"/>
    </g>
    <g id="Group_39" data-name="Group 39" transform="translate(351.843 140.354)">
      <path id="Path_44" data-name="Path 44" class="cls-2" d="M71.8-21.5C81.7,7,70.4,44.2,45.5,62.1,20.7,80.1-17.8,78.8-41,60.8-64.2,42.9-72.2,8.4-62.8-19.4c9.3-27.8,36.1-49,64.9-49.7C31-69.8,62-50,71.8-21.5Z"/>
    </g>
  </g>
</svg>
