<svg id="visual" viewBox="0 0 1920 1080" width="1920" height="1080" xmlns="http://www.w3.org/2000/svg" xmlns:xlink="http://www.w3.org/1999/xlink" version="1.1"><rect width="1920" height="1080" fill="#000816"></rect><g><g transform="translate(608 672)"><path d="M95.6 -29.1C109.3 11.1 95.8 62.2 63.8 84.7C31.7 107.3 -18.8 101.4 -54.5 75.3C-90.2 49.3 -111.2 3.2 -99.6 -34C-88 -71.3 -44 -99.7 -1.5 -99.2C40.9 -98.7 81.9 -69.3 95.6 -29.1Z" stroke="#5271ff" fill="none" stroke-width="16"></path></g><g transform="translate(1785 114)"><path d="M39.2 -11.5C44.5 3.6 38.2 23.6 24.6 33.4C11 43.2 -9.8 42.6 -22.3 33C-34.8 23.3 -39.1 4.6 -34 -10.2C-28.9 -25 -14.5 -35.9 1.3 -36.3C17 -36.7 33.9 -26.6 39.2 -11.5Z" stroke="#5271ff" fill="none" stroke-width="16"></path></g><g transform="translate(1306 145)"><path d="M39.2 -12.8C44.8 4.6 39.3 25.6 26.1 35C12.8 44.4 -8.2 42.3 -23.5 31.4C-38.7 20.6 -48.2 0.9 -43.3 -15.4C-38.4 -31.7 -19.2 -44.7 -1.2 -44.4C16.8 -44 33.6 -30.2 39.2 -12.8Z" stroke="#5271ff" fill="none" stroke-width="16"></path></g><g transform="translate(500 95)"><path d="M75.1 -24.5C86.1 9.4 76.1 50.1 49.3 70.2C22.5 90.2 -21.1 89.6 -48.7 69.1C-76.2 48.5 -87.8 8.1 -77 -25.5C-66.2 -59.1 -33.1 -85.8 -0.5 -85.6C32.1 -85.5 64.1 -58.4 75.1 -24.5Z" stroke="#5271ff" fill="none" stroke-width="16"></path></g><g transform="translate(948 103)"><path d="M78.2 -28.4C88.2 5.4 74.1 44 45.3 65.8C16.4 87.6 -27.3 92.6 -53.8 73.5C-80.3 54.3 -89.7 11.1 -77.9 -25.2C-66.1 -61.5 -33 -90.9 0.5 -91C34.1 -91.2 68.2 -62.2 78.2 -28.4Z" stroke="#5271ff" fill="none" stroke-width="16"></path></g><g transform="translate(191 985)"><path d="M49.1 -14.1C55.4 3.4 46.6 27.7 29.2 40.3C11.9 52.9 -14 53.8 -30.2 41.9C-46.4 30 -53.1 5.3 -46.5 -12.6C-39.8 -30.5 -19.9 -41.7 0.7 -41.9C21.4 -42.1 42.8 -31.5 49.1 -14.1Z" stroke="#5271ff" fill="none" stroke-width="16"></path></g><g transform="translate(1853 639)"><path d="M92.1 -29.8C103.6 5.3 86.1 49.9 53.2 74.1C20.2 98.3 -28.4 102.1 -57.1 80.7C-85.8 59.4 -94.6 12.9 -81.8 -24.1C-69 -61 -34.5 -88.4 2.9 -89.4C40.3 -90.3 80.7 -64.8 92.1 -29.8Z" stroke="#5271ff" fill="none" stroke-width="16"></path></g><g transform="translate(1076 825)"><path d="M101.4 -34C112.3 0.5 88.8 45.1 52.2 71.7C15.6 98.2 -34 106.6 -63.9 85.5C-93.8 64.3 -104.1 13.6 -90.1 -25.2C-76.2 -63.9 -38.1 -90.7 3.6 -91.9C45.3 -93 90.6 -68.6 101.4 -34Z" stroke="#5271ff" fill="none" stroke-width="16"></path></g><g transform="translate(1561 394)"><path d="M63 -20.6C71.3 5.1 60.6 36.8 38.9 52.2C17.3 67.6 -15.2 66.7 -38.8 50.3C-62.4 33.9 -77.1 2 -69.1 -23.1C-61.2 -48.3 -30.6 -66.8 -1.6 -66.3C27.4 -65.8 54.7 -46.2 63 -20.6Z" stroke="#5271ff" fill="none" stroke-width="16"></path></g><g transform="translate(182 341)"><path d="M28.3 -9.6C31.6 0.8 25.6 13.9 16.1 20.4C6.7 26.8 -6.3 26.6 -15.1 20.3C-23.9 14 -28.5 1.6 -25.3 -8.8C-22.1 -19.2 -11.1 -27.5 0.7 -27.8C12.5 -28 25.1 -20.1 28.3 -9.6Z" stroke="#5271ff" fill="none" stroke-width="16"></path></g><g transform="translate(630 1024)"><path d="M67.6 -19.5C76.1 4.3 63.6 37.3 40.3 53.9C17 70.5 -17.2 70.6 -40.2 54.1C-63.2 37.7 -75 4.7 -66.4 -19.1C-57.9 -42.9 -28.9 -57.5 0.3 -57.6C29.5 -57.7 59.1 -43.3 67.6 -19.5Z" stroke="#5271ff" fill="none" stroke-width="16"></path></g><g transform="translate(1278 1067)"><path d="M32.5 -9.5C36.6 2 30.5 17.8 19.6 25.4C8.7 33 -7.1 32.3 -18.2 24.4C-29.3 16.5 -35.7 1.4 -31.9 -9.7C-28.1 -20.8 -14 -28 0.1 -28C14.2 -28.1 28.5 -21 32.5 -9.5Z" stroke="#5271ff" fill="none" stroke-width="16"></path></g><g transform="translate(1601 962)"><path d="M30.6 -9.5C35.4 4.9 32.2 22.4 20.9 31.2C9.5 40 -9.9 40.2 -23.1 30.8C-36.2 21.5 -43.1 2.6 -38.2 -11.9C-33.4 -26.4 -16.7 -36.5 -1.9 -35.9C12.9 -35.2 25.8 -23.9 30.6 -9.5Z" stroke="#5271ff" fill="none" stroke-width="16"></path></g><g transform="translate(317 615)"><path d="M14.9 -4.9C16.9 1.3 14.5 8.9 9.6 12.2C4.7 15.5 -2.6 14.5 -7.3 10.9C-12 7.3 -14.2 1 -12.5 -4.7C-10.9 -10.4 -5.5 -15.4 0.5 -15.6C6.5 -15.7 13 -11 14.9 -4.9Z" stroke="#5271ff" fill="none" stroke-width="16"></path></g><g transform="translate(862 455)"><path d="M70.7 -21C79.5 4.4 66.4 38.8 41.4 57C16.5 75.1 -20.4 76.9 -42.9 60.2C-65.5 43.6 -73.8 8.4 -64.3 -17.9C-54.8 -44.2 -27.4 -61.6 1.8 -62.2C30.9 -62.8 61.8 -46.4 70.7 -21Z" stroke="#5271ff" fill="none" stroke-width="16"></path></g><g transform="translate(1497 687)"><path d="M37.6 -11.7C42.9 3.9 37.1 23.6 23.5 33.8C9.9 44 -11.6 44.7 -23.9 35.2C-36.1 25.7 -39.2 6 -33.7 -10C-28.2 -26 -14.1 -38.1 1 -38.5C16.2 -38.8 32.4 -27.3 37.6 -11.7Z" stroke="#5271ff" fill="none" stroke-width="16"></path></g><g transform="translate(1901 980)"><path d="M38.4 -14.9C43.3 2.6 36.4 21.6 23.1 31C9.8 40.5 -9.9 40.6 -24.7 30.6C-39.5 20.7 -49.4 0.7 -44.5 -16.9C-39.6 -34.4 -19.8 -49.5 -1.5 -49C16.7 -48.5 33.5 -32.4 38.4 -14.9Z" stroke="#5271ff" fill="none" stroke-width="16"></path></g><g transform="translate(1 719)"><path d="M12.9 -4C14.7 1.6 13 8.6 8.2 12.5C3.3 16.3 -4.8 17 -9.5 13.5C-14.2 10 -15.6 2.3 -13.4 -3.7C-11.3 -9.7 -5.6 -14 -0.1 -13.9C5.5 -13.9 11 -9.6 12.9 -4Z" stroke="#5271ff" fill="none" stroke-width="16"></path></g><g transform="translate(1158 463)"><path d="M97.2 -28.4C110 7.8 93.4 56.7 60.4 79.9C27.5 103 -21.8 100.4 -54.3 76.4C-86.7 52.4 -102.4 7 -90.6 -27.9C-78.8 -62.8 -39.4 -87.3 1.4 -87.7C42.2 -88.2 84.4 -64.7 97.2 -28.4Z" stroke="#5271ff" fill="none" stroke-width="16"></path></g><g transform="translate(96 12)"><path d="M71.8 -21.5C81.7 7 70.4 44.2 45.5 62.1C20.7 80.1 -17.8 78.8 -41 60.8C-64.2 42.9 -72.2 8.4 -62.8 -19.4C-53.5 -47.2 -26.7 -68.4 2.1 -69.1C31 -69.8 62 -50 71.8 -21.5Z" stroke="#5271ff" fill="none" stroke-width="16"></path></g></g></svg>