<svg id="visual" viewBox="0 0 1920 1080" width="1920" height="1080" xmlns="http://www.w3.org/2000/svg" xmlns:xlink="http://www.w3.org/1999/xlink" version="1.1"><rect x="0" y="0" width="1920" height="1080" fill="#5271ff"></rect><defs><linearGradient id="grad1_0" x1="43.8%" y1="0%" x2="100%" y2="100%"><stop offset="14.444444444444446%" stop-color="#5271ff" stop-opacity="1"></stop><stop offset="85.55555555555554%" stop-color="#5271ff" stop-opacity="1"></stop></linearGradient></defs><defs><linearGradient id="grad2_0" x1="0%" y1="0%" x2="56.3%" y2="100%"><stop offset="14.444444444444446%" stop-color="#5271ff" stop-opacity="1"></stop><stop offset="85.55555555555554%" stop-color="#5271ff" stop-opacity="1"></stop></linearGradient></defs><g transform="translate(1920, 0)"><path d="M0 972C-99.9 894.8 -199.8 817.5 -324.1 782.5C-448.5 747.5 -597.3 754.8 -687.3 687.3C-777.3 619.8 -808.6 477.5 -846.3 350.5C-883.9 223.5 -928 111.8 -972 0L0 0Z" fill="#000816"></path></g><g transform="translate(0, 1080)"><path d="M0 -972C125.8 -958.4 251.6 -944.8 372 -898C492.3 -851.2 607.2 -771.2 667.5 -667.5C727.8 -563.8 733.5 -436.3 775.1 -321.1C816.8 -205.9 894.4 -102.9 972 0L0 0Z" fill="#000816"></path></g></svg>