<svg id="visual" viewBox="0 0 1920 1080" width="1920" height="1080" xmlns="http://www.w3.org/2000/svg" xmlns:xlink="http://www.w3.org/1999/xlink" version="1.1"><rect x="0" y="0" width="1920" height="1080" fill="#5271ff"></rect><defs><linearGradient id="grad1_0" x1="43.8%" y1="0%" x2="100%" y2="100%"><stop offset="14.444444444444446%" stop-color="#5271ff" stop-opacity="1"></stop><stop offset="85.55555555555554%" stop-color="#5271ff" stop-opacity="1"></stop></linearGradient></defs><defs><linearGradient id="grad2_0" x1="0%" y1="0%" x2="56.3%" y2="100%"><stop offset="14.444444444444446%" stop-color="#5271ff" stop-opacity="1"></stop><stop offset="85.55555555555554%" stop-color="#5271ff" stop-opacity="1"></stop></linearGradient></defs><g transform="translate(1920, 0)"><path d="M0 972C-136 957.9 -271.9 943.8 -361.3 872.1C-450.6 800.5 -493.2 671.4 -586.9 586.9C-680.6 502.4 -825.3 462.4 -898 372C-970.7 281.6 -971.4 140.8 -972 0L0 0Z" fill="#000816"></path></g><g transform="translate(0, 1080)"><path d="M0 -972C108 -909.9 216 -847.8 334.8 -808.4C453.7 -769 583.5 -752.4 683.8 -683.8C784.1 -615.2 854.9 -494.6 898 -372C941.1 -249.3 956.6 -124.7 972 0L0 0Z" fill="#000816"></path></g></svg>