<svg id="visual" viewBox="0 0 1920 1080" width="1920" height="1080" xmlns="http://www.w3.org/2000/svg" xmlns:xlink="http://www.w3.org/1999/xlink" version="1.1"><rect x="0" y="0" width="1920" height="1080" fill="#000816"></rect><defs><linearGradient id="grad1_0" x1="43.8%" y1="0%" x2="100%" y2="100%"><stop offset="14.444444444444446%" stop-color="#000816" stop-opacity="1"></stop><stop offset="85.55555555555554%" stop-color="#000816" stop-opacity="1"></stop></linearGradient></defs><defs><linearGradient id="grad2_0" x1="0%" y1="0%" x2="56.3%" y2="100%"><stop offset="14.444444444444446%" stop-color="#000816" stop-opacity="1"></stop><stop offset="85.55555555555554%" stop-color="#000816" stop-opacity="1"></stop></linearGradient></defs><g transform="translate(1920, 0)"><path d="M0 972C-125.3 942.9 -250.6 913.8 -355.5 858.3C-460.4 802.8 -544.8 721 -639.9 639.9C-735.1 558.9 -840.9 478.5 -898 372C-955.1 265.4 -963.6 132.7 -972 0L0 0Z" fill="#5271ff"></path></g><g transform="translate(0, 1080)"><path d="M0 -972C142.3 -973.5 284.7 -975.1 372 -898C459.3 -821 491.6 -665.4 568.5 -568.5C645.4 -471.7 767 -433.6 841.7 -348.6C916.3 -263.7 944.2 -131.8 972 0L0 0Z" fill="#5271ff"></path></g></svg>