<svg id="visual" viewBox="0 0 1920 1080" width="1920" height="1080" xmlns="http://www.w3.org/2000/svg" xmlns:xlink="http://www.w3.org/1999/xlink" version="1.1"><g stroke-width="4" stroke-linejoin="bevel"><path d="M961 526L962 451L891 478Z" fill="#00356c" stroke="#000"></path><path d="M961 526L1013 429L962 451Z" fill="#000816" stroke="#000"></path><path d="M962 451L914 374L891 478Z" fill="#5271ff" stroke="#000"></path><path d="M891 478L853 546L961 526Z" fill="#3d68e6" stroke="#000"></path><path d="M1013 429L914 374L962 451Z" fill="#1954b5" stroke="#000"></path><path d="M891 478L805 416L853 546Z" fill="#004084" stroke="#000"></path><path d="M853 546L857 596L961 526Z" fill="#3d68e6" stroke="#000"></path><path d="M1098 603L1071 501L961 526Z" fill="#00356c" stroke="#000"></path><path d="M961 526L1071 501L1013 429Z" fill="#000816" stroke="#000"></path><path d="M1003 231L903 354L914 374Z" fill="#1954b5" stroke="#000"></path><path d="M914 374L805 416L891 478Z" fill="#05213f" stroke="#000"></path><path d="M857 596L938 635L961 526Z" fill="#094a9c" stroke="#000"></path><path d="M903 354L805 416L914 374Z" fill="#094a9c" stroke="#000"></path><path d="M733 561L791 646L857 596Z" fill="#00356c" stroke="#000"></path><path d="M1071 501L1094 394L1013 429Z" fill="#000816" stroke="#000"></path><path d="M1013 429L1003 231L914 374Z" fill="#3d68e6" stroke="#000"></path><path d="M857 596L919 674L938 635Z" fill="#5271ff" stroke="#000"></path><path d="M938 635L1098 603L961 526Z" fill="#1954b5" stroke="#000"></path><path d="M903 354L794 360L805 416Z" fill="#1954b5" stroke="#000"></path><path d="M1148 443L1102 381L1094 394Z" fill="#2a5ecd" stroke="#000"></path><path d="M1094 394L1102 381L1013 429Z" fill="#022b55" stroke="#000"></path><path d="M1116 625L1098 603L1129 685Z" fill="#2a5ecd" stroke="#000"></path><path d="M1071 501L1148 443L1094 394Z" fill="#00356c" stroke="#000"></path><path d="M1098 603L1138 552L1071 501Z" fill="#1954b5" stroke="#000"></path><path d="M733 561L857 596L853 546Z" fill="#2a5ecd" stroke="#000"></path><path d="M857 596L791 646L919 674Z" fill="#000816" stroke="#000"></path><path d="M733 561L853 546L805 416Z" fill="#00356c" stroke="#000"></path><path d="M695 500L733 561L805 416Z" fill="#2a5ecd" stroke="#000"></path><path d="M1138 552L1148 443L1071 501Z" fill="#2a5ecd" stroke="#000"></path><path d="M1129 685L1098 603L1099 745Z" fill="#004084" stroke="#000"></path><path d="M1098 603L1116 625L1138 552Z" fill="#094a9c" stroke="#000"></path><path d="M666 458L695 500L805 416Z" fill="#094a9c" stroke="#000"></path><path d="M695 500L712 596L733 561Z" fill="#2a5ecd" stroke="#000"></path><path d="M733 561L712 596L791 646Z" fill="#05213f" stroke="#000"></path><path d="M870 223L757 313L794 360Z" fill="#00356c" stroke="#000"></path><path d="M794 360L666 458L805 416Z" fill="#1954b5" stroke="#000"></path><path d="M870 223L794 360L903 354Z" fill="#00356c" stroke="#000"></path><path d="M1206 635L1197 497L1138 552Z" fill="#094a9c" stroke="#000"></path><path d="M1138 552L1197 497L1148 443Z" fill="#00356c" stroke="#000"></path><path d="M1265 311L1105 264L1102 381Z" fill="#05213f" stroke="#000"></path><path d="M1105 264L1003 231L1102 381Z" fill="#000816" stroke="#000"></path><path d="M1102 381L1003 231L1013 429Z" fill="#07162a" stroke="#000"></path><path d="M689 320L666 458L794 360Z" fill="#2a5ecd" stroke="#000"></path><path d="M695 500L618 519L712 596Z" fill="#5271ff" stroke="#000"></path><path d="M1003 231L870 223L903 354Z" fill="#00356c" stroke="#000"></path><path d="M1099 745L1098 603L938 635Z" fill="#1954b5" stroke="#000"></path><path d="M1116 625L1206 635L1138 552Z" fill="#00356c" stroke="#000"></path><path d="M1265 311L1102 381L1148 443Z" fill="#3d68e6" stroke="#000"></path><path d="M1010 204L989 210L1003 231Z" fill="#1954b5" stroke="#000"></path><path d="M1003 231L989 210L870 223Z" fill="#004084" stroke="#000"></path><path d="M838 761L846 763L919 674Z" fill="#004084" stroke="#000"></path><path d="M919 674L1099 745L938 635Z" fill="#1954b5" stroke="#000"></path><path d="M838 761L919 674L791 646Z" fill="#1954b5" stroke="#000"></path><path d="M712 596L773 728L791 646Z" fill="#1954b5" stroke="#000"></path><path d="M773 728L838 761L791 646Z" fill="#5271ff" stroke="#000"></path><path d="M1092 231L1010 204L1003 231Z" fill="#094a9c" stroke="#000"></path><path d="M991 132L851 204L870 223Z" fill="#05213f" stroke="#000"></path><path d="M1010 855L911 783L867 874Z" fill="#00356c" stroke="#000"></path><path d="M846 763L911 783L919 674Z" fill="#022b55" stroke="#000"></path><path d="M991 132L870 223L989 210Z" fill="#00356c" stroke="#000"></path><path d="M870 223L851 204L757 313Z" fill="#1954b5" stroke="#000"></path><path d="M654 132L689 320L757 313Z" fill="#5271ff" stroke="#000"></path><path d="M757 313L689 320L794 360Z" fill="#00356c" stroke="#000"></path><path d="M1105 264L1092 231L1003 231Z" fill="#07162a" stroke="#000"></path><path d="M1176 201L1092 231L1105 264Z" fill="#5271ff" stroke="#000"></path><path d="M911 783L1099 745L919 674Z" fill="#07162a" stroke="#000"></path><path d="M1242 746L1206 635L1129 685Z" fill="#022b55" stroke="#000"></path><path d="M1129 685L1206 635L1116 625Z" fill="#5271ff" stroke="#000"></path><path d="M689 320L649 350L666 458Z" fill="#094a9c" stroke="#000"></path><path d="M621 426L618 519L666 458Z" fill="#2a5ecd" stroke="#000"></path><path d="M666 458L618 519L695 500Z" fill="#5271ff" stroke="#000"></path><path d="M712 596L712 754L773 728Z" fill="#3d68e6" stroke="#000"></path><path d="M649 350L621 426L666 458Z" fill="#004084" stroke="#000"></path><path d="M1010 855L1107 772L1099 745Z" fill="#022b55" stroke="#000"></path><path d="M1099 745L1107 772L1129 685Z" fill="#004084" stroke="#000"></path><path d="M605 657L712 754L712 596Z" fill="#004084" stroke="#000"></path><path d="M773 728L801 838L838 761Z" fill="#3d68e6" stroke="#000"></path><path d="M838 761L801 838L846 763Z" fill="#5271ff" stroke="#000"></path><path d="M1316 563L1295 484L1197 497Z" fill="#1954b5" stroke="#000"></path><path d="M1197 497L1295 484L1148 443Z" fill="#094a9c" stroke="#000"></path><path d="M1041 138L991 132L1010 204Z" fill="#022b55" stroke="#000"></path><path d="M1010 204L991 132L989 210Z" fill="#05213f" stroke="#000"></path><path d="M1176 201L1041 138L1092 231Z" fill="#022b55" stroke="#000"></path><path d="M1092 231L1041 138L1010 204Z" fill="#022b55" stroke="#000"></path><path d="M443 584L605 657L618 519Z" fill="#00356c" stroke="#000"></path><path d="M618 519L605 657L712 596Z" fill="#1954b5" stroke="#000"></path><path d="M991 132L808 138L851 204Z" fill="#004084" stroke="#000"></path><path d="M851 204L808 138L757 313Z" fill="#07162a" stroke="#000"></path><path d="M571 263L547 355L649 350Z" fill="#1954b5" stroke="#000"></path><path d="M1327 394L1265 311L1148 443Z" fill="#5271ff" stroke="#000"></path><path d="M867 874L911 783L846 763Z" fill="#3d68e6" stroke="#000"></path><path d="M911 783L1010 855L1099 745Z" fill="#3d68e6" stroke="#000"></path><path d="M1265 311L1176 201L1105 264Z" fill="#1954b5" stroke="#000"></path><path d="M803 869L801 838L680 817Z" fill="#3d68e6" stroke="#000"></path><path d="M712 754L801 838L773 728Z" fill="#05213f" stroke="#000"></path><path d="M1295 670L1316 563L1206 635Z" fill="#05213f" stroke="#000"></path><path d="M1206 635L1316 563L1197 497Z" fill="#022b55" stroke="#000"></path><path d="M1295 484L1327 394L1148 443Z" fill="#022b55" stroke="#000"></path><path d="M801 838L867 874L846 763Z" fill="#022b55" stroke="#000"></path><path d="M1274 860L1242 746L1107 772Z" fill="#00356c" stroke="#000"></path><path d="M1107 772L1242 746L1129 685Z" fill="#07162a" stroke="#000"></path><path d="M1362 430L1327 394L1295 484Z" fill="#094a9c" stroke="#000"></path><path d="M1242 746L1295 670L1206 635Z" fill="#07162a" stroke="#000"></path><path d="M680 817L801 838L712 754Z" fill="#1954b5" stroke="#000"></path><path d="M801 838L803 869L867 874Z" fill="#094a9c" stroke="#000"></path><path d="M571 263L649 350L689 320Z" fill="#2a5ecd" stroke="#000"></path><path d="M649 350L547 355L621 426Z" fill="#3d68e6" stroke="#000"></path><path d="M621 426L511 399L618 519Z" fill="#3d68e6" stroke="#000"></path><path d="M595 748L680 817L712 754Z" fill="#094a9c" stroke="#000"></path><path d="M1265 311L1266 203L1176 201Z" fill="#00356c" stroke="#000"></path><path d="M1327 394L1298 280L1265 311Z" fill="#3d68e6" stroke="#000"></path><path d="M867 874L992 912L1010 855Z" fill="#05213f" stroke="#000"></path><path d="M1010 855L1105 890L1107 772Z" fill="#094a9c" stroke="#000"></path><path d="M986 960L992 912L867 874Z" fill="#5271ff" stroke="#000"></path><path d="M432 644L595 748L605 657Z" fill="#00356c" stroke="#000"></path><path d="M605 657L595 748L712 754Z" fill="#022b55" stroke="#000"></path><path d="M654 132L571 263L689 320Z" fill="#07162a" stroke="#000"></path><path d="M1316 563L1362 430L1295 484Z" fill="#022b55" stroke="#000"></path><path d="M1327 394L1429 394L1298 280Z" fill="#3d68e6" stroke="#000"></path><path d="M1429 394L1362 430L1444 427Z" fill="#004084" stroke="#000"></path><path d="M455 328L511 399L547 355Z" fill="#00356c" stroke="#000"></path><path d="M547 355L511 399L621 426Z" fill="#05213f" stroke="#000"></path><path d="M1305 188L1296 244L1454 180Z" fill="#000816" stroke="#000"></path><path d="M1298 280L1296 244L1265 311Z" fill="#3d68e6" stroke="#000"></path><path d="M1176 201L1202 132L1041 138Z" fill="#004084" stroke="#000"></path><path d="M1071 932L1105 890L1010 855Z" fill="#2a5ecd" stroke="#000"></path><path d="M1296 244L1266 203L1265 311Z" fill="#000816" stroke="#000"></path><path d="M827 54L817 67L808 138Z" fill="#05213f" stroke="#000"></path><path d="M808 138L654 132L757 313Z" fill="#022b55" stroke="#000"></path><path d="M827 54L808 138L991 132Z" fill="#07162a" stroke="#000"></path><path d="M827 54L991 132L883 0Z" fill="#07162a" stroke="#000"></path><path d="M1266 203L1202 132L1176 201Z" fill="#5271ff" stroke="#000"></path><path d="M974 0L991 132L1018 0Z" fill="#004084" stroke="#000"></path><path d="M817 67L654 132L808 138Z" fill="#5271ff" stroke="#000"></path><path d="M639 83L654 132L724 0Z" fill="#05213f" stroke="#000"></path><path d="M595 748L650 849L680 817Z" fill="#000816" stroke="#000"></path><path d="M680 817L750 940L803 869Z" fill="#00356c" stroke="#000"></path><path d="M886 1024L986 960L867 874Z" fill="#5271ff" stroke="#000"></path><path d="M1242 746L1355 685L1295 670Z" fill="#3d68e6" stroke="#000"></path><path d="M1295 670L1355 685L1316 563Z" fill="#05213f" stroke="#000"></path><path d="M1392 803L1355 685L1242 746Z" fill="#004084" stroke="#000"></path><path d="M654 132L563 212L571 263Z" fill="#2a5ecd" stroke="#000"></path><path d="M571 263L455 328L547 355Z" fill="#07162a" stroke="#000"></path><path d="M992 912L1071 932L1010 855Z" fill="#2a5ecd" stroke="#000"></path><path d="M1105 890L1274 860L1107 772Z" fill="#094a9c" stroke="#000"></path><path d="M986 960L1071 932L992 912Z" fill="#5271ff" stroke="#000"></path><path d="M342 433L468 510L511 399Z" fill="#004084" stroke="#000"></path><path d="M511 399L468 510L618 519Z" fill="#07162a" stroke="#000"></path><path d="M1266 203L1225 117L1202 132Z" fill="#094a9c" stroke="#000"></path><path d="M1018 0L991 132L1041 138Z" fill="#00356c" stroke="#000"></path><path d="M1305 188L1225 117L1266 203Z" fill="#004084" stroke="#000"></path><path d="M750 940L867 874L803 869Z" fill="#3d68e6" stroke="#000"></path><path d="M1468 282L1296 244L1298 280Z" fill="#3d68e6" stroke="#000"></path><path d="M1296 244L1305 188L1266 203Z" fill="#000816" stroke="#000"></path><path d="M650 849L750 940L680 817Z" fill="#2a5ecd" stroke="#000"></path><path d="M1018 0L1041 138L1148 0Z" fill="#3d68e6" stroke="#000"></path><path d="M974 0L883 0L991 132Z" fill="#004084" stroke="#000"></path><path d="M724 0L654 132L817 67Z" fill="#004084" stroke="#000"></path><path d="M1148 0L1041 138L1202 132Z" fill="#2a5ecd" stroke="#000"></path><path d="M1092 1024L1144 944L1071 932Z" fill="#00356c" stroke="#000"></path><path d="M1071 932L1144 944L1105 890Z" fill="#07162a" stroke="#000"></path><path d="M430 563L443 584L468 510Z" fill="#1954b5" stroke="#000"></path><path d="M468 510L443 584L618 519Z" fill="#07162a" stroke="#000"></path><path d="M595 748L526 829L650 849Z" fill="#00356c" stroke="#000"></path><path d="M724 0L817 67L827 54Z" fill="#07162a" stroke="#000"></path><path d="M654 132L531 104L563 212Z" fill="#094a9c" stroke="#000"></path><path d="M1444 427L1362 430L1487 531Z" fill="#1954b5" stroke="#000"></path><path d="M1362 430L1429 394L1327 394Z" fill="#07162a" stroke="#000"></path><path d="M1144 944L1274 860L1105 890Z" fill="#022b55" stroke="#000"></path><path d="M474 228L571 263L563 212Z" fill="#004084" stroke="#000"></path><path d="M474 228L455 328L571 263Z" fill="#1954b5" stroke="#000"></path><path d="M342 433L430 563L468 510Z" fill="#000816" stroke="#000"></path><path d="M1487 531L1362 430L1316 563Z" fill="#094a9c" stroke="#000"></path><path d="M1144 944L1276 879L1274 860Z" fill="#000816" stroke="#000"></path><path d="M1274 860L1392 803L1242 746Z" fill="#5271ff" stroke="#000"></path><path d="M1455 687L1440 608L1355 685Z" fill="#1954b5" stroke="#000"></path><path d="M1355 685L1440 608L1316 563Z" fill="#00356c" stroke="#000"></path><path d="M430 563L432 644L443 584Z" fill="#2a5ecd" stroke="#000"></path><path d="M443 584L432 644L605 657Z" fill="#004084" stroke="#000"></path><path d="M531 104L474 228L563 212Z" fill="#2a5ecd" stroke="#000"></path><path d="M883 0L724 0L827 54Z" fill="#1954b5" stroke="#000"></path><path d="M440 139L446 222L474 228Z" fill="#2a5ecd" stroke="#000"></path><path d="M1252 0L1148 0L1225 117Z" fill="#3d68e6" stroke="#000"></path><path d="M1225 117L1148 0L1202 132Z" fill="#2a5ecd" stroke="#000"></path><path d="M445 768L526 829L595 748Z" fill="#5271ff" stroke="#000"></path><path d="M650 849L625 941L750 940Z" fill="#1954b5" stroke="#000"></path><path d="M724 0L710 0L639 83Z" fill="#00356c" stroke="#000"></path><path d="M864 1080L886 1024L748 1080Z" fill="#00356c" stroke="#000"></path><path d="M750 940L886 1024L867 874Z" fill="#5271ff" stroke="#000"></path><path d="M986 960L1092 1024L1071 932Z" fill="#5271ff" stroke="#000"></path><path d="M526 829L625 941L650 849Z" fill="#2a5ecd" stroke="#000"></path><path d="M625 941L684 979L750 940Z" fill="#3d68e6" stroke="#000"></path><path d="M1440 608L1487 531L1316 563Z" fill="#004084" stroke="#000"></path><path d="M1537 678L1487 531L1440 608Z" fill="#1954b5" stroke="#000"></path><path d="M1389 838L1392 803L1274 860Z" fill="#1954b5" stroke="#000"></path><path d="M1392 803L1455 687L1355 685Z" fill="#2a5ecd" stroke="#000"></path><path d="M531 104L654 132L639 83Z" fill="#004084" stroke="#000"></path><path d="M474 228L407 295L455 328Z" fill="#05213f" stroke="#000"></path><path d="M455 328L342 433L511 399Z" fill="#00356c" stroke="#000"></path><path d="M536 0L531 104L639 83Z" fill="#2a5ecd" stroke="#000"></path><path d="M1152 1080L1227 964L1144 944Z" fill="#094a9c" stroke="#000"></path><path d="M1144 944L1227 964L1276 879Z" fill="#1954b5" stroke="#000"></path><path d="M1276 879L1389 838L1274 860Z" fill="#1954b5" stroke="#000"></path><path d="M1549 479L1493 513L1487 531Z" fill="#2a5ecd" stroke="#000"></path><path d="M1487 531L1493 513L1444 427Z" fill="#2a5ecd" stroke="#000"></path><path d="M1573 341L1468 282L1429 394Z" fill="#5271ff" stroke="#000"></path><path d="M1027 1080L1092 1024L986 960Z" fill="#00356c" stroke="#000"></path><path d="M1454 180L1349 113L1305 188Z" fill="#2a5ecd" stroke="#000"></path><path d="M1305 188L1349 113L1225 117Z" fill="#5271ff" stroke="#000"></path><path d="M1468 282L1298 280L1429 394Z" fill="#3d68e6" stroke="#000"></path><path d="M446 222L407 295L474 228Z" fill="#1954b5" stroke="#000"></path><path d="M280 619L339 757L432 644Z" fill="#07162a" stroke="#000"></path><path d="M432 644L445 768L595 748Z" fill="#05213f" stroke="#000"></path><path d="M526 829L522 944L625 941Z" fill="#022b55" stroke="#000"></path><path d="M445 768L495 851L526 829Z" fill="#2a5ecd" stroke="#000"></path><path d="M1573 341L1429 394L1444 427Z" fill="#000816" stroke="#000"></path><path d="M1313 927L1389 838L1276 879Z" fill="#05213f" stroke="#000"></path><path d="M1521 746L1537 678L1455 687Z" fill="#1954b5" stroke="#000"></path><path d="M1227 964L1313 927L1276 879Z" fill="#07162a" stroke="#000"></path><path d="M1327 972L1313 927L1227 964Z" fill="#000816" stroke="#000"></path><path d="M1349 113L1252 0L1225 117Z" fill="#5271ff" stroke="#000"></path><path d="M329 311L407 295L271 211Z" fill="#5271ff" stroke="#000"></path><path d="M329 311L366 325L407 295Z" fill="#07162a" stroke="#000"></path><path d="M407 295L366 325L455 328Z" fill="#1954b5" stroke="#000"></path><path d="M339 757L381 832L445 768Z" fill="#2a5ecd" stroke="#000"></path><path d="M864 1080L975 1080L886 1024Z" fill="#05213f" stroke="#000"></path><path d="M886 1024L975 1080L986 960Z" fill="#07162a" stroke="#000"></path><path d="M1211 1080L1327 972L1227 964Z" fill="#00356c" stroke="#000"></path><path d="M366 325L342 433L455 328Z" fill="#2a5ecd" stroke="#000"></path><path d="M748 1080L886 1024L750 940Z" fill="#094a9c" stroke="#000"></path><path d="M975 1080L1027 1080L986 960Z" fill="#07162a" stroke="#000"></path><path d="M1468 282L1454 180L1296 244Z" fill="#094a9c" stroke="#000"></path><path d="M1349 113L1368 0L1252 0Z" fill="#07162a" stroke="#000"></path><path d="M417 139L440 139L398 131Z" fill="#2a5ecd" stroke="#000"></path><path d="M531 104L440 139L474 228Z" fill="#000816" stroke="#000"></path><path d="M1608 568L1549 479L1487 531Z" fill="#022b55" stroke="#000"></path><path d="M1493 513L1549 479L1444 427Z" fill="#07162a" stroke="#000"></path><path d="M1468 282L1503 160L1454 180Z" fill="#000816" stroke="#000"></path><path d="M1537 678L1440 608L1455 687Z" fill="#022b55" stroke="#000"></path><path d="M599 1031L710 1080L684 979Z" fill="#094a9c" stroke="#000"></path><path d="M684 979L748 1080L750 940Z" fill="#000816" stroke="#000"></path><path d="M495 851L522 944L526 829Z" fill="#00356c" stroke="#000"></path><path d="M470 926L522 944L495 851Z" fill="#000816" stroke="#000"></path><path d="M710 1080L748 1080L684 979Z" fill="#3d68e6" stroke="#000"></path><path d="M1313 927L1469 895L1389 838Z" fill="#004084" stroke="#000"></path><path d="M1152 1080L1144 944L1092 1024Z" fill="#004084" stroke="#000"></path><path d="M519 0L440 139L531 104Z" fill="#3d68e6" stroke="#000"></path><path d="M440 139L417 139L446 222Z" fill="#094a9c" stroke="#000"></path><path d="M1027 1080L1152 1080L1092 1024Z" fill="#094a9c" stroke="#000"></path><path d="M1521 746L1392 803L1517 799Z" fill="#022b55" stroke="#000"></path><path d="M1521 746L1455 687L1392 803Z" fill="#07162a" stroke="#000"></path><path d="M710 0L536 0L639 83Z" fill="#000816" stroke="#000"></path><path d="M271 211L407 295L446 222Z" fill="#07162a" stroke="#000"></path><path d="M366 325L329 311L342 433Z" fill="#07162a" stroke="#000"></path><path d="M599 1031L684 979L625 941Z" fill="#022b55" stroke="#000"></path><path d="M522 944L599 1031L625 941Z" fill="#022b55" stroke="#000"></path><path d="M381 832L470 926L495 851Z" fill="#5271ff" stroke="#000"></path><path d="M500 1080L601 1080L599 1031Z" fill="#094a9c" stroke="#000"></path><path d="M381 832L495 851L445 768Z" fill="#07162a" stroke="#000"></path><path d="M1517 799L1392 803L1389 838Z" fill="#004084" stroke="#000"></path><path d="M536 0L519 0L531 104Z" fill="#05213f" stroke="#000"></path><path d="M519 0L398 131L440 139Z" fill="#022b55" stroke="#000"></path><path d="M417 139L398 131L446 222Z" fill="#00356c" stroke="#000"></path><path d="M1458 40L1368 0L1349 113Z" fill="#000816" stroke="#000"></path><path d="M432 644L430 563L280 619Z" fill="#094a9c" stroke="#000"></path><path d="M339 757L445 768L432 644Z" fill="#004084" stroke="#000"></path><path d="M1152 1080L1211 1080L1227 964Z" fill="#07162a" stroke="#000"></path><path d="M1666 419L1573 341L1549 479Z" fill="#1954b5" stroke="#000"></path><path d="M1549 479L1573 341L1444 427Z" fill="#094a9c" stroke="#000"></path><path d="M1454 180L1458 40L1349 113Z" fill="#022b55" stroke="#000"></path><path d="M280 619L430 563L342 433Z" fill="#094a9c" stroke="#000"></path><path d="M1578 226L1503 160L1468 282Z" fill="#094a9c" stroke="#000"></path><path d="M1621 584L1608 568L1537 678Z" fill="#5271ff" stroke="#000"></path><path d="M1469 895L1517 799L1389 838Z" fill="#022b55" stroke="#000"></path><path d="M1469 895L1313 927L1327 972Z" fill="#094a9c" stroke="#000"></path><path d="M242 443L278 423L240 391Z" fill="#2a5ecd" stroke="#000"></path><path d="M329 311L278 423L342 433Z" fill="#094a9c" stroke="#000"></path><path d="M240 590L280 619L342 433Z" fill="#5271ff" stroke="#000"></path><path d="M1418 1039L1469 895L1327 972Z" fill="#1954b5" stroke="#000"></path><path d="M1621 584L1537 678L1602 715Z" fill="#2a5ecd" stroke="#000"></path><path d="M1537 678L1608 568L1487 531Z" fill="#094a9c" stroke="#000"></path><path d="M500 1080L522 944L470 926Z" fill="#1954b5" stroke="#000"></path><path d="M500 1080L599 1031L522 944Z" fill="#3d68e6" stroke="#000"></path><path d="M599 1031L601 1080L710 1080Z" fill="#2a5ecd" stroke="#000"></path><path d="M1472 0L1458 40L1504 0Z" fill="#5271ff" stroke="#000"></path><path d="M1503 160L1458 40L1454 180Z" fill="#2a5ecd" stroke="#000"></path><path d="M1602 715L1537 678L1521 746Z" fill="#000816" stroke="#000"></path><path d="M1701 509L1666 419L1549 479Z" fill="#004084" stroke="#000"></path><path d="M1668 284L1578 226L1573 341Z" fill="#00356c" stroke="#000"></path><path d="M1573 341L1578 226L1468 282Z" fill="#00356c" stroke="#000"></path><path d="M243 383L278 423L329 311Z" fill="#1954b5" stroke="#000"></path><path d="M278 423L242 443L342 433Z" fill="#00356c" stroke="#000"></path><path d="M161 277L243 383L329 311Z" fill="#07162a" stroke="#000"></path><path d="M243 383L240 391L278 423Z" fill="#00356c" stroke="#000"></path><path d="M242 443L240 590L342 433Z" fill="#1954b5" stroke="#000"></path><path d="M280 619L266 736L339 757Z" fill="#022b55" stroke="#000"></path><path d="M339 757L264 854L381 832Z" fill="#004084" stroke="#000"></path><path d="M229 667L240 590L144 672Z" fill="#1954b5" stroke="#000"></path><path d="M1564 1003L1537 853L1469 895Z" fill="#5271ff" stroke="#000"></path><path d="M1469 895L1537 853L1517 799Z" fill="#07162a" stroke="#000"></path><path d="M1517 799L1602 715L1521 746Z" fill="#000816" stroke="#000"></path><path d="M1669 793L1602 715L1517 799Z" fill="#1954b5" stroke="#000"></path><path d="M229 667L266 736L280 619Z" fill="#05213f" stroke="#000"></path><path d="M381 832L355 923L470 926Z" fill="#5271ff" stroke="#000"></path><path d="M1211 1080L1336 1080L1327 972Z" fill="#00356c" stroke="#000"></path><path d="M330 75L271 211L398 131Z" fill="#094a9c" stroke="#000"></path><path d="M398 131L271 211L446 222Z" fill="#3d68e6" stroke="#000"></path><path d="M243 383L161 277L240 391Z" fill="#07162a" stroke="#000"></path><path d="M264 854L355 923L381 832Z" fill="#094a9c" stroke="#000"></path><path d="M1504 0L1458 40L1566 82Z" fill="#004084" stroke="#000"></path><path d="M1458 40L1472 0L1368 0Z" fill="#022b55" stroke="#000"></path><path d="M175 532L240 590L242 443Z" fill="#000816" stroke="#000"></path><path d="M240 590L229 667L280 619Z" fill="#094a9c" stroke="#000"></path><path d="M296 943L359 949L355 923Z" fill="#094a9c" stroke="#000"></path><path d="M1336 1080L1418 1039L1327 972Z" fill="#5271ff" stroke="#000"></path><path d="M333 0L330 75L398 131Z" fill="#00356c" stroke="#000"></path><path d="M1701 509L1608 568L1621 584Z" fill="#3d68e6" stroke="#000"></path><path d="M1701 509L1549 479L1608 568Z" fill="#3d68e6" stroke="#000"></path><path d="M1666 419L1661 372L1573 341Z" fill="#004084" stroke="#000"></path><path d="M1566 82L1458 40L1503 160Z" fill="#000816" stroke="#000"></path><path d="M383 1080L500 1080L470 926Z" fill="#004084" stroke="#000"></path><path d="M264 854L339 757L266 736Z" fill="#3d68e6" stroke="#000"></path><path d="M355 923L359 949L470 926Z" fill="#05213f" stroke="#000"></path><path d="M1566 82L1503 160L1578 226Z" fill="#022b55" stroke="#000"></path><path d="M1667 209L1566 82L1578 226Z" fill="#00356c" stroke="#000"></path><path d="M1688 349L1668 284L1661 372Z" fill="#094a9c" stroke="#000"></path><path d="M1661 372L1668 284L1573 341Z" fill="#000816" stroke="#000"></path><path d="M63 494L175 532L242 443Z" fill="#3d68e6" stroke="#000"></path><path d="M63 494L242 443L240 391Z" fill="#07162a" stroke="#000"></path><path d="M247 858L264 854L187 825Z" fill="#004084" stroke="#000"></path><path d="M264 854L266 736L187 825Z" fill="#00356c" stroke="#000"></path><path d="M1701 429L1688 349L1661 372Z" fill="#094a9c" stroke="#000"></path><path d="M1701 429L1661 372L1666 419Z" fill="#000816" stroke="#000"></path><path d="M1707 698L1621 584L1602 715Z" fill="#00356c" stroke="#000"></path><path d="M1761 590L1701 509L1621 584Z" fill="#1954b5" stroke="#000"></path><path d="M237 75L227 194L271 211Z" fill="#022b55" stroke="#000"></path><path d="M271 211L161 277L329 311Z" fill="#3d68e6" stroke="#000"></path><path d="M1701 509L1701 429L1666 419Z" fill="#2a5ecd" stroke="#000"></path><path d="M519 0L333 0L398 131Z" fill="#3d68e6" stroke="#000"></path><path d="M330 75L237 75L271 211Z" fill="#05213f" stroke="#000"></path><path d="M144 672L266 736L229 667Z" fill="#07162a" stroke="#000"></path><path d="M264 854L296 943L355 923Z" fill="#2a5ecd" stroke="#000"></path><path d="M359 949L383 1080L470 926Z" fill="#022b55" stroke="#000"></path><path d="M1741 296L1668 284L1688 349Z" fill="#004084" stroke="#000"></path><path d="M1741 296L1667 209L1668 284Z" fill="#00356c" stroke="#000"></path><path d="M1668 284L1667 209L1578 226Z" fill="#5271ff" stroke="#000"></path><path d="M1566 82L1670 0L1504 0Z" fill="#2a5ecd" stroke="#000"></path><path d="M247 858L296 943L264 854Z" fill="#5271ff" stroke="#000"></path><path d="M1418 1039L1564 1003L1469 895Z" fill="#2a5ecd" stroke="#000"></path><path d="M1537 853L1669 793L1517 799Z" fill="#05213f" stroke="#000"></path><path d="M1336 1080L1452 1080L1418 1039Z" fill="#07162a" stroke="#000"></path><path d="M1646 898L1669 793L1537 853Z" fill="#5271ff" stroke="#000"></path><path d="M1669 793L1707 698L1602 715Z" fill="#05213f" stroke="#000"></path><path d="M1796 288L1741 296L1836 391Z" fill="#022b55" stroke="#000"></path><path d="M121 217L161 277L227 194Z" fill="#094a9c" stroke="#000"></path><path d="M227 194L161 277L271 211Z" fill="#2a5ecd" stroke="#000"></path><path d="M280 1080L383 1080L359 949Z" fill="#07162a" stroke="#000"></path><path d="M246 0L237 75L330 75Z" fill="#2a5ecd" stroke="#000"></path><path d="M1519 1080L1564 1003L1418 1039Z" fill="#1954b5" stroke="#000"></path><path d="M67 593L144 672L175 532Z" fill="#2a5ecd" stroke="#000"></path><path d="M175 532L144 672L240 590Z" fill="#00356c" stroke="#000"></path><path d="M1564 1003L1646 898L1537 853Z" fill="#094a9c" stroke="#000"></path><path d="M1789 735L1775 646L1707 698Z" fill="#094a9c" stroke="#000"></path><path d="M247 858L167 897L296 943Z" fill="#004084" stroke="#000"></path><path d="M296 943L280 1080L359 949Z" fill="#00356c" stroke="#000"></path><path d="M144 672L187 825L266 736Z" fill="#07162a" stroke="#000"></path><path d="M1836 391L1741 296L1688 349Z" fill="#2a5ecd" stroke="#000"></path><path d="M1667 209L1708 168L1566 82Z" fill="#000816" stroke="#000"></path><path d="M1798 517L1701 429L1701 509Z" fill="#00356c" stroke="#000"></path><path d="M1452 1080L1519 1080L1418 1039Z" fill="#1954b5" stroke="#000"></path><path d="M1564 1003L1622 1037L1646 898Z" fill="#00356c" stroke="#000"></path><path d="M1775 646L1761 590L1707 698Z" fill="#022b55" stroke="#000"></path><path d="M1707 698L1761 590L1621 584Z" fill="#004084" stroke="#000"></path><path d="M1741 296L1708 168L1667 209Z" fill="#1954b5" stroke="#000"></path><path d="M333 0L246 0L330 75Z" fill="#5271ff" stroke="#000"></path><path d="M132 102L121 217L227 194Z" fill="#004084" stroke="#000"></path><path d="M1708 168L1661 48L1566 82Z" fill="#3d68e6" stroke="#000"></path><path d="M1743 807L1707 698L1669 793Z" fill="#022b55" stroke="#000"></path><path d="M1761 590L1798 517L1701 509Z" fill="#1954b5" stroke="#000"></path><path d="M132 102L227 194L237 75Z" fill="#00356c" stroke="#000"></path><path d="M58 352L63 494L240 391Z" fill="#2a5ecd" stroke="#000"></path><path d="M1920 674L1798 517L1761 590Z" fill="#2a5ecd" stroke="#000"></path><path d="M1735 0L1661 48L1763 40Z" fill="#004084" stroke="#000"></path><path d="M0 154L111 233L121 217Z" fill="#07162a" stroke="#000"></path><path d="M121 217L111 233L161 277Z" fill="#5271ff" stroke="#000"></path><path d="M1720 902L1743 807L1669 793Z" fill="#5271ff" stroke="#000"></path><path d="M1720 902L1669 793L1646 898Z" fill="#022b55" stroke="#000"></path><path d="M120 870L167 897L187 825Z" fill="#094a9c" stroke="#000"></path><path d="M187 825L167 897L247 858Z" fill="#004084" stroke="#000"></path><path d="M58 352L240 391L161 277Z" fill="#2a5ecd" stroke="#000"></path><path d="M144 672L119 812L187 825Z" fill="#2a5ecd" stroke="#000"></path><path d="M63 494L67 593L175 532Z" fill="#5271ff" stroke="#000"></path><path d="M0 463L59 498L63 494Z" fill="#2a5ecd" stroke="#000"></path><path d="M63 494L59 498L67 593Z" fill="#004084" stroke="#000"></path><path d="M63 754L119 812L144 672Z" fill="#2a5ecd" stroke="#000"></path><path d="M1519 1080L1622 1037L1564 1003Z" fill="#2a5ecd" stroke="#000"></path><path d="M1735 0L1670 0L1661 48Z" fill="#022b55" stroke="#000"></path><path d="M1661 48L1670 0L1566 82Z" fill="#022b55" stroke="#000"></path><path d="M1809 198L1708 168L1741 296Z" fill="#022b55" stroke="#000"></path><path d="M183 994L280 1080L296 943Z" fill="#094a9c" stroke="#000"></path><path d="M1836 391L1688 349L1701 429Z" fill="#5271ff" stroke="#000"></path><path d="M1622 1037L1720 902L1646 898Z" fill="#000816" stroke="#000"></path><path d="M111 233L58 352L161 277Z" fill="#094a9c" stroke="#000"></path><path d="M1812 849L1789 735L1743 807Z" fill="#004084" stroke="#000"></path><path d="M1743 807L1789 735L1707 698Z" fill="#3d68e6" stroke="#000"></path><path d="M1920 674L1920 495L1798 517Z" fill="#2a5ecd" stroke="#000"></path><path d="M172 0L132 102L237 75Z" fill="#5271ff" stroke="#000"></path><path d="M0 308L0 370L58 352Z" fill="#00356c" stroke="#000"></path><path d="M1920 473L1826 423L1798 517Z" fill="#094a9c" stroke="#000"></path><path d="M1798 517L1826 423L1701 429Z" fill="#07162a" stroke="#000"></path><path d="M119 812L120 870L187 825Z" fill="#05213f" stroke="#000"></path><path d="M167 897L183 994L296 943Z" fill="#07162a" stroke="#000"></path><path d="M0 819L120 870L119 812Z" fill="#004084" stroke="#000"></path><path d="M1920 473L1836 391L1826 423Z" fill="#000816" stroke="#000"></path><path d="M1826 423L1836 391L1701 429Z" fill="#5271ff" stroke="#000"></path><path d="M246 0L172 0L237 75Z" fill="#094a9c" stroke="#000"></path><path d="M84 1014L183 994L167 897Z" fill="#3d68e6" stroke="#000"></path><path d="M0 685L144 672L67 593Z" fill="#004084" stroke="#000"></path><path d="M0 685L63 754L144 672Z" fill="#07162a" stroke="#000"></path><path d="M1920 220L1809 198L1796 288Z" fill="#000816" stroke="#000"></path><path d="M1796 288L1809 198L1741 296Z" fill="#3d68e6" stroke="#000"></path><path d="M1519 1080L1653 1080L1622 1037Z" fill="#2a5ecd" stroke="#000"></path><path d="M1622 1037L1771 1016L1720 902Z" fill="#05213f" stroke="#000"></path><path d="M1720 902L1812 849L1743 807Z" fill="#3d68e6" stroke="#000"></path><path d="M0 370L0 463L58 352Z" fill="#5271ff" stroke="#000"></path><path d="M58 352L0 463L63 494Z" fill="#07162a" stroke="#000"></path><path d="M59 498L0 524L67 593Z" fill="#094a9c" stroke="#000"></path><path d="M0 463L0 524L59 498Z" fill="#05213f" stroke="#000"></path><path d="M1763 40L1661 48L1708 168Z" fill="#000816" stroke="#000"></path><path d="M84 1014L167 897L120 870Z" fill="#2a5ecd" stroke="#000"></path><path d="M109 1080L204 1080L183 994Z" fill="#05213f" stroke="#000"></path><path d="M183 994L204 1080L280 1080Z" fill="#022b55" stroke="#000"></path><path d="M1809 198L1763 40L1708 168Z" fill="#07162a" stroke="#000"></path><path d="M0 308L58 352L111 233Z" fill="#000816" stroke="#000"></path><path d="M0 308L111 233L0 154Z" fill="#1954b5" stroke="#000"></path><path d="M0 524L0 629L67 593Z" fill="#3d68e6" stroke="#000"></path><path d="M63 754L0 819L119 812Z" fill="#2a5ecd" stroke="#000"></path><path d="M1810 936L1812 849L1720 902Z" fill="#05213f" stroke="#000"></path><path d="M1920 674L1761 590L1775 646Z" fill="#3d68e6" stroke="#000"></path><path d="M0 154L121 217L132 102Z" fill="#000816" stroke="#000"></path><path d="M0 629L0 685L67 593Z" fill="#1954b5" stroke="#000"></path><path d="M1763 40L1776 0L1735 0Z" fill="#2a5ecd" stroke="#000"></path><path d="M1873 58L1776 0L1763 40Z" fill="#1954b5" stroke="#000"></path><path d="M172 0L92 0L132 102Z" fill="#1954b5" stroke="#000"></path><path d="M1771 1016L1810 936L1720 902Z" fill="#3d68e6" stroke="#000"></path><path d="M1920 674L1775 646L1789 735Z" fill="#3d68e6" stroke="#000"></path><path d="M1920 674L1789 735L1920 691Z" fill="#094a9c" stroke="#000"></path><path d="M1836 391L1920 344L1796 288Z" fill="#07162a" stroke="#000"></path><path d="M1809 198L1873 58L1763 40Z" fill="#004084" stroke="#000"></path><path d="M1920 495L1920 473L1798 517Z" fill="#022b55" stroke="#000"></path><path d="M1653 1080L1725 1080L1622 1037Z" fill="#07162a" stroke="#000"></path><path d="M1725 1080L1771 1016L1622 1037Z" fill="#1954b5" stroke="#000"></path><path d="M0 685L0 819L63 754Z" fill="#5271ff" stroke="#000"></path><path d="M0 39L0 154L132 102Z" fill="#004084" stroke="#000"></path><path d="M1920 473L1920 344L1836 391Z" fill="#000816" stroke="#000"></path><path d="M0 923L84 1014L120 870Z" fill="#000816" stroke="#000"></path><path d="M1920 691L1789 735L1920 765Z" fill="#00356c" stroke="#000"></path><path d="M1920 765L1789 735L1812 849Z" fill="#3d68e6" stroke="#000"></path><path d="M0 1080L109 1080L84 1014Z" fill="#094a9c" stroke="#000"></path><path d="M84 1014L109 1080L183 994Z" fill="#094a9c" stroke="#000"></path><path d="M1920 344L1920 220L1796 288Z" fill="#5271ff" stroke="#000"></path><path d="M1816 1080L1825 990L1771 1016Z" fill="#07162a" stroke="#000"></path><path d="M1771 1016L1825 990L1810 936Z" fill="#05213f" stroke="#000"></path><path d="M1920 910L1920 765L1812 849Z" fill="#00356c" stroke="#000"></path><path d="M1920 910L1812 849L1810 936Z" fill="#07162a" stroke="#000"></path><path d="M1920 220L1920 187L1809 198Z" fill="#000816" stroke="#000"></path><path d="M1920 94L1873 58L1809 198Z" fill="#2a5ecd" stroke="#000"></path><path d="M0 819L0 923L120 870Z" fill="#1954b5" stroke="#000"></path><path d="M92 0L0 39L132 102Z" fill="#2a5ecd" stroke="#000"></path><path d="M92 0L0 0L0 39Z" fill="#07162a" stroke="#000"></path><path d="M1920 187L1920 94L1809 198Z" fill="#000816" stroke="#000"></path><path d="M1725 1080L1816 1080L1771 1016Z" fill="#094a9c" stroke="#000"></path><path d="M1825 990L1920 910L1810 936Z" fill="#05213f" stroke="#000"></path><path d="M1920 1023L1920 910L1825 990Z" fill="#2a5ecd" stroke="#000"></path><path d="M0 923L0 1036L84 1014Z" fill="#000816" stroke="#000"></path><path d="M1920 94L1920 0L1873 58Z" fill="#022b55" stroke="#000"></path><path d="M1873 58L1920 0L1776 0Z" fill="#3d68e6" stroke="#000"></path><path d="M0 1036L0 1080L84 1014Z" fill="#00356c" stroke="#000"></path><path d="M1816 1080L1920 1023L1825 990Z" fill="#000816" stroke="#000"></path><path d="M1816 1080L1920 1080L1920 1023Z" fill="#00356c" stroke="#000"></path></g></svg>