<svg id="nice-blue" xmlns="http://www.w3.org/2000/svg" width="1920" height="1080" viewBox="0 0 1920 1080">
  <defs>
    <style>
      .cls-1 {
        fill: #000816;
      }

      .cls-2 {
        fill: #071528;
      }

      .cls-3 {
        fill: #061f3b;
      }

      .cls-4 {
        fill: #03284f;
      }

      .cls-5 {
        fill: #003264;
      }

      .cls-6 {
        fill: #003b79;
      }

      .cls-7 {
        fill: #03458f;
      }

      .cls-8 {
        fill: #0e4ea5;
      }

      .cls-9 {
        fill: #1e57bb;
      }

      .cls-10 {
        fill: #2e60d2;
      }

      .cls-11 {
        fill: #3f69e8;
      }

      .cls-12 {
        fill: #5271ff;
      }
    </style>
  </defs>
  <rect id="Rectangle_15" data-name="Rectangle 15" class="cls-1" width="1920" height="1080"/>
  <path id="Path_45" data-name="Path 45" class="cls-1" d="M0,511.982l45.7-5.969c45.6-5.969,137-17.906,228.5-24.073,91.5-6.068,183.1-6.466,274.6-19.5,91.5-13.131,182.9-38.994,274.2-59.188,91.3-20.293,182.7-34.816,274-28.35s182.7,33.921,274.2,61.277,183.1,54.612,274.6,35.015,182.9-85.847,228.5-119.072L1920,319v758H0Z" transform="translate(0 -69)"/>
  <path id="Path_46" data-name="Path 46" class="cls-2" d="M0,360.78l45.7,16.612c45.6,16.513,137,49.738,228.5,72.915s183.1,36.507,274.6,20.89S731.7,411.213,823,409.721s182.7,39.889,274,58.292,182.7,13.827,274.2-4.277,183.1-49.539,274.6-75.9,182.9-47.649,228.5-58.193L1920,319v758H0Z" transform="translate(0 -69)"/>
  <path id="Path_47" data-name="Path 47" class="cls-3" d="M0,492.832l45.7,16.69c45.6,16.79,137,50.171,228.5,66.563s183.1,15.8,274.6,18.081,182.9,7.65,274.2-19.373,182.7-86.234,274-102.527c91.3-16.194,182.7,10.63,274.2,32.288a2530.141,2530.141,0,0,0,274.6,49.575c91.5,11.226,182.9,17.187,228.5,20.168l45.7,2.98V1077H0Z" transform="translate(0 -69)"/>
  <path id="Path_48" data-name="Path 48" class="cls-4" d="M0,492l45.7,2.682c45.6,2.582,137,7.946,228.5,8.045,91.5.2,183.1-4.767,274.6,11.124s182.9,52.64,274.2,62.274c91.3,9.535,182.7-7.946,274-6.853,91.3,1.192,182.7,21.056,274.2,25.823,91.5,4.867,183.1-5.463,274.6-2.781s182.9,18.176,228.5,26.022l45.7,7.747V1077H0Z" transform="translate(0 -69)"/>
  <path id="Path_49" data-name="Path 49" class="cls-5" d="M0,663.133l45.7-16.376c45.6-16.376,137-49.128,228.5-61.534s183.1-4.466,274.6,14.589c91.5,18.956,182.9,49.128,274.2,69.772s182.7,31.958,274,7.94,182.7-83.17,274.2-110.464,183.1-22.728,274.6,3.771,182.9,74.734,228.5,98.951L1920,693.9V1077H0Z" transform="translate(0 -69)"/>
  <path id="Path_50" data-name="Path 50" class="cls-6" d="M0,596l45.7,26.3c45.6,26.4,137,79,228.5,86.2s183.1-31.2,274.6-47.2,182.9-9.6,274.2-18c91.3-8.3,182.7-31.3,274-15.3s182.7,71,274.2,99,183.1,29,274.6,25.2c91.5-3.9,182.9-12.5,228.5-16.9L1920,731v350H0Z" transform="translate(0 -73)"/>
  <path id="Path_51" data-name="Path 51" class="cls-7" d="M0,782l45.7,3.5C91.3,789,182.7,796,274.2,773s183.1-76,274.6-99.8c91.5-23.9,182.9-18.5,274.2,1.3s182.7,54.2,274,69,182.7,10.2,274.2,11.3c91.5,1.2,183.1,8.2,274.6,2.9,91.5-5.4,182.9-23,228.5-31.9L1920,717v364H0Z" transform="translate(0 -73)"/>
  <path id="Path_52" data-name="Path 52" class="cls-8" d="M0,808l45.7-4c45.6-4,137-12,228.5-27.5S457.3,738,548.8,745.7c91.5,7.6,182.9,46,274.2,55.1,91.3,9.2,182.7-10.8,274-10.6,91.3.1,182.7,20.5,274.2,12.5s183.1-44.4,274.6-45.9,182.9,31.9,228.5,48.5L1920,822v259H0Z" transform="translate(0 -73)"/>
  <path id="Path_53" data-name="Path 53" class="cls-9" d="M0,845l45.7-9c45.6-9,137-27,228.5-25.7,91.5,1.4,183.1,22,274.6,26.5s182.9-7.1,274.2-20.3,182.7-27.8,274-28.3,182.7,13.1,274.2,30.3,183.1,37.8,274.6,36.5,182.9-24.7,228.5-36.3L1920,807v274H0Z" transform="translate(0 -73)"/>
  <path id="Path_54" data-name="Path 54" class="cls-10" d="M0,865l45.7.8c45.6.9,137,2.5,228.5,15.7s183.1,37.8,274.6,40.8S731.7,906.7,823,894.8c91.3-11.8,182.7-16.8,274-13.3s182.7,15.5,274.2,17.8c91.5,2.4,183.1-5,274.6-4.1,91.5.8,182.9,9.8,228.5,14.3L1920,914v167H0Z" transform="translate(0 -73)"/>
  <path id="Path_55" data-name="Path 55" class="cls-11" d="M0,921l45.7.7c45.6.6,137,2,228.5,3.1C365.7,926,457.3,927,548.8,937S731.7,966,823,964.8c91.3-1.1,182.7-22.5,274-29.5s182.7.4,274.2,11.5c91.5,11.2,183.1,26.2,274.6,29.9,91.5,3.6,182.9-4,228.5-7.9L1920,965v116H0Z" transform="translate(0 -73)"/>
  <path id="Path_56" data-name="Path 56" class="cls-12" d="M0,1023l45.7-5.5c45.6-5.5,137-16.5,228.5-25.2,91.5-8.6,183.1-15,274.6-6.6,91.5,8.3,182.9,31.3,274.2,37.8s182.7-3.5,274-14,182.7-21.5,274.2-23.2c91.5-1.6,183.1,6,274.6,14.7s182.9,18.3,228.5,23.2l45.7,4.8v52H0Z" transform="translate(0 -73)"/>
</svg>
