<svg id="visual" viewBox="0 0 1920 1080" width="1920" height="1080" xmlns="http://www.w3.org/2000/svg" xmlns:xlink="http://www.w3.org/1999/xlink" version="1.1"><rect x="0" y="0" width="1920" height="1080" fill="#000816"></rect><path d="M0 513L45.7 507C91.3 501 182.7 489 274.2 482.8C365.7 476.7 457.3 476.3 548.8 463.2C640.3 450 731.7 424 823 403.7C914.3 383.3 1005.7 368.7 1097 375.2C1188.3 381.7 1279.7 409.3 1371.2 436.8C1462.7 464.3 1554.3 491.7 1645.8 472C1737.3 452.3 1828.7 385.7 1874.3 352.3L1920 319L1920 1081L1874.3 1081C1828.7 1081 1737.3 1081 1645.8 1081C1554.3 1081 1462.7 1081 1371.2 1081C1279.7 1081 1188.3 1081 1097 1081C1005.7 1081 914.3 1081 823 1081C731.7 1081 640.3 1081 548.8 1081C457.3 1081 365.7 1081 274.2 1081C182.7 1081 91.3 1081 45.7 1081L0 1081Z" fill="#000816"></path><path d="M0 361L45.7 377.7C91.3 394.3 182.7 427.7 274.2 451C365.7 474.3 457.3 487.7 548.8 472C640.3 456.3 731.7 411.7 823 410.2C914.3 408.7 1005.7 450.3 1097 468.8C1188.3 487.3 1279.7 482.7 1371.2 464.5C1462.7 446.3 1554.3 414.7 1645.8 388.2C1737.3 361.7 1828.7 340.3 1874.3 329.7L1920 319L1920 1081L1874.3 1081C1828.7 1081 1737.3 1081 1645.8 1081C1554.3 1081 1462.7 1081 1371.2 1081C1279.7 1081 1188.3 1081 1097 1081C1005.7 1081 914.3 1081 823 1081C731.7 1081 640.3 1081 548.8 1081C457.3 1081 365.7 1081 274.2 1081C182.7 1081 91.3 1081 45.7 1081L0 1081Z" fill="#191e27"></path><path d="M0 493L45.7 509.8C91.3 526.7 182.7 560.3 274.2 576.8C365.7 593.3 457.3 592.7 548.8 595C640.3 597.3 731.7 602.7 823 575.5C914.3 548.3 1005.7 488.7 1097 472.3C1188.3 456 1279.7 483 1371.2 504.8C1462.7 526.7 1554.3 543.3 1645.8 554.7C1737.3 566 1828.7 572 1874.3 575L1920 578L1920 1081L1874.3 1081C1828.7 1081 1737.3 1081 1645.8 1081C1554.3 1081 1462.7 1081 1371.2 1081C1279.7 1081 1188.3 1081 1097 1081C1005.7 1081 914.3 1081 823 1081C731.7 1081 640.3 1081 548.8 1081C457.3 1081 365.7 1081 274.2 1081C182.7 1081 91.3 1081 45.7 1081L0 1081Z" fill="#2c3039"></path><path d="M0 492L45.7 494.7C91.3 497.3 182.7 502.7 274.2 502.8C365.7 503 457.3 498 548.8 514C640.3 530 731.7 567 823 576.7C914.3 586.3 1005.7 568.7 1097 569.8C1188.3 571 1279.7 591 1371.2 595.8C1462.7 600.7 1554.3 590.3 1645.8 593C1737.3 595.7 1828.7 611.3 1874.3 619.2L1920 627L1920 1081L1874.3 1081C1828.7 1081 1737.3 1081 1645.8 1081C1554.3 1081 1462.7 1081 1371.2 1081C1279.7 1081 1188.3 1081 1097 1081C1005.7 1081 914.3 1081 823 1081C731.7 1081 640.3 1081 548.8 1081C457.3 1081 365.7 1081 274.2 1081C182.7 1081 91.3 1081 45.7 1081L0 1081Z" fill="#40444c"></path><path d="M0 664L45.7 647.5C91.3 631 182.7 598 274.2 585.5C365.7 573 457.3 581 548.8 600.2C640.3 619.3 731.7 649.7 823 670.5C914.3 691.3 1005.7 702.7 1097 678.5C1188.3 654.3 1279.7 594.7 1371.2 567.2C1462.7 539.7 1554.3 544.3 1645.8 571C1737.3 597.7 1828.7 646.3 1874.3 670.7L1920 695L1920 1081L1874.3 1081C1828.7 1081 1737.3 1081 1645.8 1081C1554.3 1081 1462.7 1081 1371.2 1081C1279.7 1081 1188.3 1081 1097 1081C1005.7 1081 914.3 1081 823 1081C731.7 1081 640.3 1081 548.8 1081C457.3 1081 365.7 1081 274.2 1081C182.7 1081 91.3 1081 45.7 1081L0 1081Z" fill="#555960"></path><path d="M0 596L45.7 622.3C91.3 648.7 182.7 701.3 274.2 708.5C365.7 715.7 457.3 677.3 548.8 661.3C640.3 645.3 731.7 651.7 823 643.3C914.3 635 1005.7 612 1097 628C1188.3 644 1279.7 699 1371.2 727C1462.7 755 1554.3 756 1645.8 752.2C1737.3 748.3 1828.7 739.7 1874.3 735.3L1920 731L1920 1081L1874.3 1081C1828.7 1081 1737.3 1081 1645.8 1081C1554.3 1081 1462.7 1081 1371.2 1081C1279.7 1081 1188.3 1081 1097 1081C1005.7 1081 914.3 1081 823 1081C731.7 1081 640.3 1081 548.8 1081C457.3 1081 365.7 1081 274.2 1081C182.7 1081 91.3 1081 45.7 1081L0 1081Z" fill="#6c6f75"></path><path d="M0 782L45.7 785.5C91.3 789 182.7 796 274.2 773C365.7 750 457.3 697 548.8 673.2C640.3 649.3 731.7 654.7 823 674.5C914.3 694.3 1005.7 728.7 1097 743.5C1188.3 758.3 1279.7 753.7 1371.2 754.8C1462.7 756 1554.3 763 1645.8 757.7C1737.3 752.3 1828.7 734.7 1874.3 725.8L1920 717L1920 1081L1874.3 1081C1828.7 1081 1737.3 1081 1645.8 1081C1554.3 1081 1462.7 1081 1371.2 1081C1279.7 1081 1188.3 1081 1097 1081C1005.7 1081 914.3 1081 823 1081C731.7 1081 640.3 1081 548.8 1081C457.3 1081 365.7 1081 274.2 1081C182.7 1081 91.3 1081 45.7 1081L0 1081Z" fill="#83858b"></path><path d="M0 808L45.7 804C91.3 800 182.7 792 274.2 776.5C365.7 761 457.3 738 548.8 745.7C640.3 753.3 731.7 791.7 823 800.8C914.3 810 1005.7 790 1097 790.2C1188.3 790.3 1279.7 810.7 1371.2 802.7C1462.7 794.7 1554.3 758.3 1645.8 756.8C1737.3 755.3 1828.7 788.7 1874.3 805.3L1920 822L1920 1081L1874.3 1081C1828.7 1081 1737.3 1081 1645.8 1081C1554.3 1081 1462.7 1081 1371.2 1081C1279.7 1081 1188.3 1081 1097 1081C1005.7 1081 914.3 1081 823 1081C731.7 1081 640.3 1081 548.8 1081C457.3 1081 365.7 1081 274.2 1081C182.7 1081 91.3 1081 45.7 1081L0 1081Z" fill="#9a9ca1"></path><path d="M0 845L45.7 836C91.3 827 182.7 809 274.2 810.3C365.7 811.7 457.3 832.3 548.8 836.8C640.3 841.3 731.7 829.7 823 816.5C914.3 803.3 1005.7 788.7 1097 788.2C1188.3 787.7 1279.7 801.3 1371.2 818.5C1462.7 835.7 1554.3 856.3 1645.8 855C1737.3 853.7 1828.7 830.3 1874.3 818.7L1920 807L1920 1081L1874.3 1081C1828.7 1081 1737.3 1081 1645.8 1081C1554.3 1081 1462.7 1081 1371.2 1081C1279.7 1081 1188.3 1081 1097 1081C1005.7 1081 914.3 1081 823 1081C731.7 1081 640.3 1081 548.8 1081C457.3 1081 365.7 1081 274.2 1081C182.7 1081 91.3 1081 45.7 1081L0 1081Z" fill="#b3b4b8"></path><path d="M0 865L45.7 865.8C91.3 866.7 182.7 868.3 274.2 881.5C365.7 894.7 457.3 919.3 548.8 922.3C640.3 925.3 731.7 906.7 823 894.8C914.3 883 1005.7 878 1097 881.5C1188.3 885 1279.7 897 1371.2 899.3C1462.7 901.7 1554.3 894.3 1645.8 895.2C1737.3 896 1828.7 905 1874.3 909.5L1920 914L1920 1081L1874.3 1081C1828.7 1081 1737.3 1081 1645.8 1081C1554.3 1081 1462.7 1081 1371.2 1081C1279.7 1081 1188.3 1081 1097 1081C1005.7 1081 914.3 1081 823 1081C731.7 1081 640.3 1081 548.8 1081C457.3 1081 365.7 1081 274.2 1081C182.7 1081 91.3 1081 45.7 1081L0 1081Z" fill="#cbcdcf"></path><path d="M0 921L45.7 921.7C91.3 922.3 182.7 923.7 274.2 924.8C365.7 926 457.3 927 548.8 937C640.3 947 731.7 966 823 964.8C914.3 963.7 1005.7 942.3 1097 935.3C1188.3 928.3 1279.7 935.7 1371.2 946.8C1462.7 958 1554.3 973 1645.8 976.7C1737.3 980.3 1828.7 972.7 1874.3 968.8L1920 965L1920 1081L1874.3 1081C1828.7 1081 1737.3 1081 1645.8 1081C1554.3 1081 1462.7 1081 1371.2 1081C1279.7 1081 1188.3 1081 1097 1081C1005.7 1081 914.3 1081 823 1081C731.7 1081 640.3 1081 548.8 1081C457.3 1081 365.7 1081 274.2 1081C182.7 1081 91.3 1081 45.7 1081L0 1081Z" fill="#e5e6e7"></path><path d="M0 1023L45.7 1017.5C91.3 1012 182.7 1001 274.2 992.3C365.7 983.7 457.3 977.3 548.8 985.7C640.3 994 731.7 1017 823 1023.5C914.3 1030 1005.7 1020 1097 1009.5C1188.3 999 1279.7 988 1371.2 986.3C1462.7 984.7 1554.3 992.3 1645.8 1001C1737.3 1009.7 1828.7 1019.3 1874.3 1024.2L1920 1029L1920 1081L1874.3 1081C1828.7 1081 1737.3 1081 1645.8 1081C1554.3 1081 1462.7 1081 1371.2 1081C1279.7 1081 1188.3 1081 1097 1081C1005.7 1081 914.3 1081 823 1081C731.7 1081 640.3 1081 548.8 1081C457.3 1081 365.7 1081 274.2 1081C182.7 1081 91.3 1081 45.7 1081L0 1081Z" fill="#ffffff"></path></svg>