<svg id="visual" viewBox="0 0 1920 1080" width="1920" height="1080" xmlns="http://www.w3.org/2000/svg" xmlns:xlink="http://www.w3.org/1999/xlink" version="1.1"><path d="M0 455L83 455L83 368L167 368L167 325L250 325L250 249L334 249L334 239L417 239L417 293L501 293L501 228L584 228L584 325L668 325L668 411L751 411L751 444L835 444L835 390L918 390L918 476L1002 476L1002 336L1085 336L1085 249L1169 249L1169 260L1252 260L1252 444L1336 444L1336 249L1419 249L1419 271L1503 271L1503 336L1586 336L1586 195L1670 195L1670 314L1753 314L1753 465L1837 465L1837 228L1920 228L1920 325L1920 0L1920 0L1837 0L1837 0L1753 0L1753 0L1670 0L1670 0L1586 0L1586 0L1503 0L1503 0L1419 0L1419 0L1336 0L1336 0L1252 0L1252 0L1169 0L1169 0L1085 0L1085 0L1002 0L1002 0L918 0L918 0L835 0L835 0L751 0L751 0L668 0L668 0L584 0L584 0L501 0L501 0L417 0L417 0L334 0L334 0L250 0L250 0L167 0L167 0L83 0L83 0L0 0Z" fill="#ffffff"></path><path d="M0 530L83 530L83 519L167 519L167 433L250 433L250 401L334 401L334 368L417 368L417 465L501 465L501 401L584 401L584 498L668 498L668 487L751 487L751 573L835 573L835 498L918 498L918 552L1002 552L1002 476L1085 476L1085 368L1169 368L1169 433L1252 433L1252 552L1336 552L1336 390L1419 390L1419 444L1503 444L1503 455L1586 455L1586 347L1670 347L1670 487L1753 487L1753 584L1837 584L1837 390L1920 390L1920 465L1920 323L1920 226L1837 226L1837 463L1753 463L1753 312L1670 312L1670 193L1586 193L1586 334L1503 334L1503 269L1419 269L1419 247L1336 247L1336 442L1252 442L1252 258L1169 258L1169 247L1085 247L1085 334L1002 334L1002 474L918 474L918 388L835 388L835 442L751 442L751 409L668 409L668 323L584 323L584 226L501 226L501 291L417 291L417 237L334 237L334 247L250 247L250 323L167 323L167 366L83 366L83 453L0 453Z" fill="#dcd9ff"></path><path d="M0 714L83 714L83 714L167 714L167 530L250 530L250 498L334 498L334 519L417 519L417 606L501 606L501 541L584 541L584 649L668 649L668 638L751 638L751 735L835 735L835 703L918 703L918 671L1002 671L1002 584L1085 584L1085 519L1169 519L1169 595L1252 595L1252 735L1336 735L1336 498L1419 498L1419 541L1503 541L1503 617L1586 617L1586 498L1670 498L1670 671L1753 671L1753 671L1837 671L1837 541L1920 541L1920 638L1920 463L1920 388L1837 388L1837 582L1753 582L1753 485L1670 485L1670 345L1586 345L1586 453L1503 453L1503 442L1419 442L1419 388L1336 388L1336 550L1252 550L1252 431L1169 431L1169 366L1085 366L1085 474L1002 474L1002 550L918 550L918 496L835 496L835 571L751 571L751 485L668 485L668 496L584 496L584 399L501 399L501 463L417 463L417 366L334 366L334 399L250 399L250 431L167 431L167 517L83 517L83 528L0 528Z" fill="#b7b5ff"></path><path d="M0 865L83 865L83 876L167 876L167 735L250 735L250 617L334 617L334 638L417 638L417 768L501 768L501 681L584 681L584 768L668 768L668 854L751 854L751 865L835 865L835 811L918 811L918 843L1002 843L1002 854L1085 854L1085 714L1169 714L1169 725L1252 725L1252 876L1336 876L1336 735L1419 735L1419 757L1503 757L1503 800L1586 800L1586 649L1670 649L1670 908L1753 908L1753 854L1837 854L1837 649L1920 649L1920 768L1920 636L1920 539L1837 539L1837 669L1753 669L1753 669L1670 669L1670 496L1586 496L1586 615L1503 615L1503 539L1419 539L1419 496L1336 496L1336 733L1252 733L1252 593L1169 593L1169 517L1085 517L1085 582L1002 582L1002 669L918 669L918 701L835 701L835 733L751 733L751 636L668 636L668 647L584 647L584 539L501 539L501 604L417 604L417 517L334 517L334 496L250 496L250 528L167 528L167 712L83 712L83 712L0 712Z" fill="#8c92ff"></path><path d="M0 1081L83 1081L83 1081L167 1081L167 1081L250 1081L250 1081L334 1081L334 1081L417 1081L417 1081L501 1081L501 1081L584 1081L584 1081L668 1081L668 1081L751 1081L751 1081L835 1081L835 1081L918 1081L918 1081L1002 1081L1002 1081L1085 1081L1085 1081L1169 1081L1169 1081L1252 1081L1252 1081L1336 1081L1336 1081L1419 1081L1419 1081L1503 1081L1503 1081L1586 1081L1586 1081L1670 1081L1670 1081L1753 1081L1753 1081L1837 1081L1837 1081L1920 1081L1920 1081L1920 766L1920 647L1837 647L1837 852L1753 852L1753 906L1670 906L1670 647L1586 647L1586 798L1503 798L1503 755L1419 755L1419 733L1336 733L1336 874L1252 874L1252 723L1169 723L1169 712L1085 712L1085 852L1002 852L1002 841L918 841L918 809L835 809L835 863L751 863L751 852L668 852L668 766L584 766L584 679L501 679L501 766L417 766L417 636L334 636L334 615L250 615L250 733L167 733L167 874L83 874L83 863L0 863Z" fill="#5271ff"></path></svg>